<?xml version="1.0" encoding="UTF-8"?>
<svg xmlns="http://www.w3.org/2000/svg" version="1.1" xmlns:xlink="http://www.w3.org/1999/xlink" viewBox="0 0 147 174">
  <defs>
    <style>
      .cls-1 {
        fill: #fff;
      }

      .cls-2 {
        fill: none;
      }

      .cls-3 {
        clip-path: url(#clippath);
      }
    </style>
    <clipPath id="clippath">
      <rect class="cls-2" width="147" height="174"/>
    </clipPath>
  </defs>
  <!-- Generator: Adobe Illustrator 28.7.9, SVG Export Plug-In . SVG Version: 1.2.0 Build 218)  -->
  <g>
    <g id="Layer_1">
      <g class="cls-3">
        <g>
          <path class="cls-1" d="M81.7,113.8c2.4,1.4,5.3,1.4,7.8,0l26.2-15.2c3.5-2.1,3.5-7.2,0-9.3l-50.4-29.2c-2.4-1.4-5.3-1.4-7.8,0l-26.2,15.2c-3.5,2.1-3.5,7.2,0,9.3l50.4,29.2Z"/>
          <path class="cls-1" d="M64.5.8c-2-1.1-4.3-1.1-6.3,0L0,34.5v30.4L58.6,31.2c1.7-1,3.8-1,5.5,0l59.7,34.5v28.3l23.3-13.5v-32L64.5.8Z"/>
          <path class="cls-1" d="M83,143l-59.7-34.5v-28.5L0,93.5v32l82.5,47.7c2,1.1,4.3,1.1,6.3,0l58.2-33.7v-30.5l-58.6,33.8c-1.7,1.1-3.8,1.1-5.5.1Z"/>
        </g>
      </g>
    </g>
  </g>
</svg>