<?xml version="1.0" encoding="UTF-8"?>
<svg xmlns="http://www.w3.org/2000/svg" version="1.1" xmlns:xlink="http://www.w3.org/1999/xlink" viewBox="0 0 190 43">
  <defs>
    <style>
      .cls-1 {
        fill: #fff;
      }

      .cls-2 {
        fill: none;
      }

      .cls-3 {
        clip-path: url(#clippath);
      }
    </style>
    <clipPath id="clippath">
      <rect class="cls-2" width="190" height="43"/>
    </clipPath>
  </defs>
  <!-- Generator: Adobe Illustrator 28.7.9, SVG Export Plug-In . SVG Version: 1.2.0 Build 218)  -->
  <g>
    <g id="Layer_1">
      <g class="cls-3">
        <g>
          <path class="cls-1" d="M20.6,28.1c.6.3,1.3.3,2,0l6.6-3.7c.6-.4.9-1.2.5-1.8-.1-.2-.3-.4-.5-.5l-12.7-7.2c-.6-.3-1.4-.3-2,0l-6.6,3.7c-.6.4-.9,1.2-.5,1.8.1.2.3.4.5.5l12.7,7.2Z"/>
          <path class="cls-1" d="M16.2.2c-.5-.3-1.1-.3-1.6,0L0,8.5v7.5L14.7,7.7c.4-.2.9-.2,1.4,0l15,8.5v7l5.8-3.3v-7.9L16.2.2ZM20.8,35.3l-15-8.5v-7l-5.8,3.3v7.9l20.8,11.8c.5.3,1.1.3,1.6,0l14.6-8.3v-7.5l-14.7,8.4c-.4.2-1,.2-1.4,0"/>
          <path class="cls-1" d="M44.7,31.8V11.9h14.6v3.6h-10.4v4.7h6.6v3.4h-6.6v8.2h-4.2,0ZM61.4,31.8V11.9h4.2v16.3h10.1v3.7h-14.3ZM77.8,31.8V11.9h15.2v3.6h-11v4.6h7.5v3.4h-7.5v4.8h11.1v3.6h-15.3ZM93.8,31.8l7.7-10.3-7.4-9.6h5l4.8,6.5,4.8-6.5h4.8l-7.2,9.6,7.8,10.3h-5l-5.3-7.2-5.3,7.2h-4.8Z"/>
          <path class="cls-1" d="M119.5,20.9h4.8c.9,0,1.6-.2,2.2-.8s.8-1.1.8-2-.3-1.5-.8-2-1.3-.8-2.2-.8h-4.8v5.5ZM115.3,31.8V11.9h9.5c1.3,0,2.5.3,3.5.8,1,.5,1.8,1.3,2.4,2.2.6.9.9,2,.9,3.2s-.3,2.2-.9,3.2c-.6.9-1.4,1.7-2.4,2.2-1,.5-2.2.8-3.5.8h-5.3v7.5h-4.2ZM137.1,23.3h5.8l-2.9-7.3-3,7.3ZM129.3,31.8l8.3-19.9h4.8l8.2,19.9h-4.5l-2.1-5.2h-8.4l-2.1,5.2h-4.4ZM156.6,20.8h4.6c.9,0,1.7-.2,2.3-.8.6-.5.9-1.1.9-1.9s-.3-1.5-.9-2c-.6-.5-1.3-.8-2.3-.8h-4.6v5.4ZM152.4,31.8V11.9h9.2c1.4,0,2.6.3,3.6.8s1.9,1.2,2.5,2.2c.6.9.9,2,.9,3.2,0,1.2-.4,2.4-1.1,3.3-.7,1-1.7,1.7-2.9,2.2l4.5,8.2h-4.7l-4-7.6h-3.9v7.6h-4.2ZM171.4,31.8V11.9h4.2v8.9l8.9-8.9h5.1l-9.8,9.5,10.3,10.4h-5.6l-8.8-9.3v9.3h-4.2Z"/>
        </g>
      </g>
    </g>
  </g>
</svg>