<svg xmlns="http://www.w3.org/2000/svg" width="147" height="174" fill="none" viewBox="0 0 147 174"><g fill="#fff" clip-path="url(#a)"><path d="M81.698 113.802c2.382 1.403 5.325 1.403 7.847 0l26.205-15.155c3.503-2.105 3.503-7.157 0-9.262L65.302 60.198c-2.382-1.403-5.325-1.403-7.848 0L31.25 75.353c-3.504 2.105-3.504 7.157 0 9.262z"/><path d="M64.461.842a6.33 6.33 0 0 0-6.306 0L0 34.519v30.45l58.576-33.817a5.44 5.44 0 0 1 5.465 0l59.697 34.519v28.345L147 80.546V48.551zM82.959 142.989l-59.697-34.52V79.984L0 93.454v31.994l82.539 47.71a6.32 6.32 0 0 0 6.306 0L147 139.481v-30.45l-58.576 33.817c-1.681 1.123-3.783 1.123-5.465.141"/></g><defs><clipPath id="a"><path fill="#fff" d="M0 0h147v174H0z"/></clipPath></defs></svg>