<svg xmlns="http://www.w3.org/2000/svg" width="190" height="43" fill="none" viewBox="0 0 190 43"><g clip-path="url(#a)"><path fill="#0055b9" d="M20.57 28.124a2.06 2.06 0 0 0 1.962 0l6.59-3.742a1.32 1.32 0 0 0 0-2.294l-12.721-7.212a2.06 2.06 0 0 0-1.963 0l-6.59 3.742a1.32 1.32 0 0 0 0 2.294z"/><path fill="#0055b9" d="M16.217.211a1.66 1.66 0 0 0-1.594 0L0 8.51v7.513l14.745-8.358c.43-.242.95-.242 1.38 0l15.02 8.54v7.03l5.825-3.32V12.01zM20.845 35.335l-15.02-8.54v-7.03L0 23.085v7.905L20.754 42.79c.49.271 1.103.271 1.593 0L36.97 34.49v-7.513l-14.745 8.358c-.43.242-.95.242-1.38 0"/><path fill="#000" d="M44.664 31.835V11.92h14.592v3.591H48.864v4.708h6.56v3.44h-6.56v8.207h-4.2zM61.371 31.835V11.92h4.2v16.295h10.055v3.651H61.371zM77.772 31.835V11.92h15.205v3.591H81.972v4.557h7.48v3.44h-7.48v4.767h11.127v3.591H77.772zM93.805 31.835l7.725-10.29-7.358-9.626H99.2l4.813 6.548 4.812-6.548h4.813l-7.204 9.626 7.817 10.29h-4.996l-5.304-7.242-5.303 7.242z"/><path fill="#0055b9" d="M119.463 20.912h4.813c.919 0 1.624-.242 2.176-.755s.828-1.146.828-1.961c0-.845-.276-1.509-.828-2.022s-1.287-.754-2.176-.754h-4.813zm-4.2 10.923V11.92h9.472c1.319 0 2.514.272 3.526.815 1.011.543 1.808 1.267 2.391 2.233.582.935.858 2.022.858 3.229 0 1.177-.276 2.233-.858 3.168-.583.936-1.38 1.66-2.391 2.203-1.043.543-2.207.785-3.526.785h-5.272v7.513h-4.2zM137.059 23.296h5.824l-2.851-7.333zm-7.725 8.54 8.338-19.917h4.843l8.216 19.916h-4.537l-2.054-5.22h-8.399l-2.054 5.22zM156.617 20.821h4.629c.95 0 1.686-.241 2.268-.754.582-.483.858-1.147.858-1.931 0-.815-.276-1.48-.858-1.962-.582-.483-1.318-.754-2.268-.754h-4.629zm-4.169 11.014V11.92h9.165c1.38 0 2.606.272 3.648.785s1.87 1.237 2.453 2.172c.582.936.889 1.992.889 3.23a5.67 5.67 0 0 1-1.073 3.349q-1.058 1.448-2.851 2.172l4.476 8.238h-4.691l-3.954-7.634h-3.893v7.634h-4.169zM171.392 31.835V11.92h4.2v8.902l8.859-8.902h5.12l-9.84 9.475 10.3 10.441h-5.61l-8.829-9.264v9.264z"/></g><defs><clipPath id="a"><path fill="#fff" d="M0 0h190v43H0z"/></clipPath></defs></svg>